/* XPM */
static char * gxanim_xpm[] = {
"48 48 25 1",
" 	c None",
".	c #030202",
"+	c #0E181C",
"@	c #A09291",
"#	c #C4C1CD",
"$	c #8686FC",
"%	c #F5F4F8",
"&	c #714A22",
"*	c #E7E6F0",
"=	c #696569",
"-	c #E0DEEC",
";	c #CC9466",
">	c #B87C4E",
",	c #937346",
"'	c #D8D6E6",
")	c #D4AB8B",
"!	c #B1B0B8",
"~	c #DBCDD8",
"{	c #58330D",
"]	c #A68473",
"^	c #CECEDF",
"/	c #90643A",
"(	c #888480",
"_	c #5A0202",
":	c #CBB3B8",
"                                                ",
"                                                ",
"                                                ",
"                                                ",
"           %%%***                               ",
"           %%%%%%%%*----**%                     ",
"           %%%%%%%%%%%%%%%*****%                ",
"           *%**%*%%%%%%%%%%%%%%%%%%%%           ",
"           %*~!#~'---**%**%%%%%*%*%**'          ",
"           *%#]:::):!#~~'-**********^'%         ",
"           **#].^*!;%:::::::!^'-***'#'*         ",
"           **^].!%%..&>;)))):::::#*'^'*         ",
"           -*#]..!^......&,;)%%).^*-#'*         ",
"           -*^].............+{,:+#*-^~-         ",
"           -*#]**']);>&{.......!%^-'#'-         ",
"           -*^]!%%);;>;;;>/{...#%#*-#^'         ",
"           -*#]==^;>>/&&/>;));/..^--##^         ",
"           --^]...>>/&&{&&/;;)%(.~-'#^^         ",
"           --^]*%,>],//{{{&/>>~%%#--##!         ",
"           '-^]%%)>;,,&.@/&{>/;%-#-':@(         ",
"           '-^].!)>;@,/{],]/&/..+~''#@$         ",
"           '-^]._%);;,,,/(;;&/!.@#-'#@(         ",
"           '-^]%@!))));]@!:;>;%%-^'^##^         ",
"           '-^]%(.../];))));;]%*.#'^##-         ",
"           -'#](........&])~~_...#-^!=#         ",
"           -'^].,&..........&~==.^'~#=#         ",
"           *-^]^;);>,&......+%%!.#'^!^'         ",
"           -'-'!!!:>>;;;>/+..*%*.^^^!#'         ",
"           -^^'----!!!:!!)))_....#^'!#'         ",
"             -^#^^~''----::!!!!..^^^!!^         ",
"                  ^^##^~'^'-**~!!!^^@!#         ",
"                      -'^^^#^^^^'^^#@@^         ",
"                           *'^####^#$@-         ",
"                                 -^!@'          ",
"      ############################!######       ",
"      !$$$$$$(!$$$$$$$(!$$$$$$$(!$$$$$$$(       ",
"      #$..$$$(!$..$..$(!$$$.$.$(#$.$.$$$(       ",
"      #$...$$(#$..$..$(!$$....$(!$....$$(       ",
"      #$....$(!$..$..$(#$....$$(#$$....$(       ",
"      !$...$$(#$..$..$(#$$....$(!$....$$(       ",
"      #$..$$$(!$..$..$(!$$$.$.$(#$.$.$$$(       ",
"      !$$$$$$(#$$$$$$$(#$$$$$$$(!$$$$$$$(       ",
"      #(((((((!((((((((!((((((((#((((((((       ",
"                                                ",
"                                                ",
"                                                ",
"                                                ",
"                                                "};
