/* XPM */
static char *tmp[] = {
/* columns rows colors chars-per-pixel */
"32 32 187 2",
"   c #000100060009",
".  c #007406820AAF",
"X  c #011908D70E6C",
"o  c #02160B1311DE",
"O  c #0B0B10811757",
"+  c #011514502192",
"@  c #04041C2C2E66",
"#  c #0CFD161620B0",
"$  c #14751DBE2981",
"%  c #19D224443242",
"&  c #061E2B6345A5",
"*  c #045B2D774A9B",
"=  c #08282C7C48C9",
"-  c #03A4350D57A0",
";  c #00E135AE58F8",
":  c #016A39DA5F8F",
">  c #0B463AC55EAE",
",  c #11822F604AE3",
"<  c #1D752DE6423A",
"1  c #1B433BF45D45",
"2  c #02D83DC364DF",
"3  c #24FD35154A42",
"4  c #13844D657D8D",
"5  c #1A634EFF7E86",
"6  c #257548386E1E",
"7  c #264648E96EFF",
"8  c #2CDD45F664C4",
"9  c #2F1F48486797",
"0  c #2C9C4B4B6F2F",
"q  c #2E8E4CDD70B0",
"w  c #221253137EB6",
"e  c #2A6A538C7FD0",
"r  c #3A7556967A75",
"t  c #3D9D59697DAD",
"y  c #03D4503084B4",
"u  c #043C56A68EE6",
"i  c #08A954ED8B83",
"p  c #06DF5DBD9AC2",
"a  c #0A7A57F890E0",
"s  c #0A5A588891B1",
"d  c #0AF360009D65",
"f  c #17F853038636",
"g  c #14C558989070",
"h  c #190953238616",
"j  c #153558F99111",
"k  c #1B4F5BCC9437",
"l  c #0CBD61D1A00F",
"z  c #1480611D9E92",
"x  c #02F363FCA4B4",
"c  c #04CD6ACAB007",
"v  c #0BF3642DA4B9",
"b  c #0BD7671CA95E",
"n  c #089968E9ACBC",
"m  c #043F6D0FB3E1",
"M  c #056D71B9BBD3",
"N  c #09F2730BBD8D",
"B  c #14F164E5A484",
"V  c #11D66A16AD85",
"C  c #119A7020B79F",
"Z  c #1C846DEEB23A",
"A  c #16AB735BBC1F",
"S  c #1BBC70D0B747",
"D  c #1B2B7424BCF1",
"F  c #2404529A8100",
"G  c #23C4576789C9",
"H  c #259559C98CCC",
"J  c #2D3D55C5827A",
"K  c #271F5DBE938B",
"L  c #2B835DE691A1",
"P  c #3FC05DFE8494",
"I  c #27D861E28A21",
"U  c #255662A29C74",
"Y  c #2DA1649B9C2F",
"T  c #310B64399A9F",
"R  c #3E13697F9BFB",
"E  c #229565E6A2F9",
"W  c #26C36B1FAAB2",
"Q  c #283867B7A454",
"!  c #21616FCFB4B4",
"~  c #219171A1B7C7",
"^  c #2F67731BB54D",
"/  c #30007767BCBD",
"(  c #2F2F78C8BE6E",
")  c #3B5B6D06A471",
"_  c #3C1C6FBFA8D8",
"`  c #331B7080AF4F",
"'  c #35E67717B8D8",
"]  c #32C278B8BD0D",
"[  c #07427676C348",
"{  c #057578D8C736",
"}  c #06567E56D088",
"|  c #0B57765AC30E",
" . c #0FA07900C6D6",
".. c #0E727D09CDB5",
"X. c #14097A15C7EC",
"o. c #13F97C36CB9B",
"O. c #1A9A77D0C31A",
"+. c #24247991C40B",
"@. c #22567DE5CBDF",
"#. c #29517A62C453",
"$. c #41015F6F8656",
"%. c #435363C48D65",
"&. c #41616B7B9D3D",
"*. c #4B846B53951D",
"=. c #4BA16F649B5B",
"-. c #4B8B71B19B2B",
";. c #50A072329EFE",
":. c #46E770B0A2D2",
">. c #4B3B7202A29A",
",. c #4B4F7615AABE",
"<. c #49F97A5AB41C",
"1. c #52D37524A322",
"2. c #545F7AA8AC97",
"3. c #5A2A7ED9B025",
"4. c #52127CBCB292",
"5. c #59797F3FB151",
"6. c #172F8199D413",
"7. c #1D7E8433D7DF",
"8. c #1E0E8616DAE2",
"9. c #1C5C8B0AE2C1",
"0. c #292980D0CF2E",
"q. c #26468910DE46",
"w. c #29EA8353D332",
"e. c #2F9F8808DA29",
"r. c #2FF088B8DB3A",
"t. c #37178302CDCD",
"y. c #30408717D7E7",
"u. c #30B187D7D928",
"i. c #31E28C0CDFAF",
"p. c #3BB48E26DF97",
"a. c #28F992B2ECED",
"s. c #31218D0DE1A1",
"d. c #36069504EDFD",
"f. c #3B4B962EED3D",
"g. c #382897E7F201",
"h. c #562C8336BBB8",
"j. c #5AFB831BB717",
"k. c #5E06869EBC0C",
"l. c #64D58118A9B1",
"z. c #6CAC8928A9F9",
"x. c #60E88908BE26",
"c. c #799996D7B443",
"v. c #40608696CFCF",
"b. c #46E78898D050",
"n. c #4DCA84E5C559",
"m. c #492985D5C9A9",
"M. c #4C9C893ECE13",
"N. c #415187C7D151",
"B. c #47678939D151",
"V. c #44A49080DF4E",
"C. c #4C748C7CD474",
"Z. c #44D590A0DF4E",
"A. c #55158707C494",
"S. c #54F588E8C827",
"D. c #5C068AD5C635",
"F. c #5474943CDDE5",
"G. c #5D0C93D3D6AE",
"H. c #44ED97F0EC6C",
"J. c #461698E8ED3C",
"K. c #4CF79B15EDE2",
"L. c #44D59C2CF413",
"P. c #53439E2EF05F",
"I. c #5B1B9F1FED5C",
"U. c #52E39F7FF2DA",
"Y. c #5ACAA0E0F0C0",
"T. c #5BCCA26AF2BA",
"R. c #63BD8DCDC5A2",
"E. c #60E88F27CACA",
"W. c #66FC9318CD9D",
"Q. c #695997A7D4C4",
"!. c #6D0D9EFEE060",
"~. c #61119EBEE888",
"^. c #60F89FFFEABA",
"/. c #7414A222DF1E",
"(. c #60B0A0B0EC1B",
"). c #6DDDA0D0E373",
"_. c #6A1AA868F393",
"`. c #6BA6A9FFF5A5",
"'. c #7302A701EACF",
"]. c #74D4A9E9EECE",
"[. c #7929ABABEDDD",
"{. c #758DABA3F1C0",
"}. c #87279C2CBD7D",
"|. c #8C3C9EBEBD4D",
" X c #8ECEA0C0BE7E",
".X c #C2D2C979D635",
"XX c None",
/* pixels */
"XXXXXXXXXXXXXXXXXXXXXXXXXXXXXX        XXXXXXXXXXXXXXXXXXXXXXXXXX",
"XXXXXXXXXXXXXXXXXXXXXXXXXXXX  X .       XXXXXXXXXXXXXXXXXXXXXXXX",
"XXXXXXXXXXXXXXXXXXXXXXXXXX  X - - X       XXXXXXXXXXXXXXXXXXXXXX",
"XXXXXXXXXXXXXXXXXXXXXXXX  . 2 I I 2 .       XXXXXXXXXXXXXXXXXXXX",
"XXXXXXXXXXXXXXXXXXXXXX    > c..X.Xc.2       XXXXXXXXXXXXXXXXXXXX",
"XXXXXXXXXXXXXXXXXXXX    & z. X}.}.|.z.&       XXXXXXXXXXXXXXXXXX",
"XXXXXXXXXXXXXXXXXXXX  + -.l.j.h.h.j.3.=.+       XXXXXXXXXXXXXXXX",
"XXXXXXXXXXXXXXXXXX  . w >._ ' ( ( ] _ -.w       XXXXXXXXXXXXXXXX",
"XXXXXXXXXXXXXXXXXX  * T Y E D o.X.O.B Y Y *       XXXXXXXXXXXXXX",
"XXXXXXXXXXXXXXXX  o v B V b l } } l V b B d o     XXXXXXXXXXXXXX",
"XXXXXXXXXXXXXXXX  : m m m M [ u u { M m c m 2       XXXXXXXXXXXX",
"XXXXXXXXXXXXXX  X x M | N | ..a s .. .N | m x X     XXXXXXXXXXXX",
"XXXXXXXXXXXXXX  * c | o.o.o.B 9.9.v o.o...| m *       XXXXXXXXXX",
"XXXXXXXXXXXX    y b  .6.8.S @.a.a.w.Z 7.o. .n y       XXXXXXXXXX",
"XXXXXXXXXXXX  + p v A 7.q.w.r.d.g.u.w.q.w. .v p +     XXXXXXXXXX",
"XXXXXXXXXXXX  - v b z ~ r.g.s.K.L.s.f.r.~ z V v -       XXXXXXXX",
"XXXXXXXXXX    i C O.+.W G H.K.U.T.J.J.H ` +.D C i       XXXXXXXX",
"XXXXXXXXXX  o v A @.u.t.N.6 b.I.T.b.7 v.#.e.@.A v X     XXXXXXXX",
"XXXXXXXXXX  @ B Z #.] V.U.I.q &.&.0 I.P.V.] #.Z B @     XXXXXXXX",
"XXXXXXXXXX  = j k Y L b.F.^._.< < `.^.F.b.L Q k g =       XXXXXX",
"XXXXXXXXXX  2 k W F e M.^.`.,.r r ,.`.^.M.J w W K 2       XXXXXX",
"XXXXXXXX    5 U ^ Y C.A.G.h.$.[.].$.h.G.n.C.Y ^ E 4       XXXXXX",
"XXXXXXXX    f U ` ) n.S.R.%.[.'.[.'.%.D.S.n.) ` U f       XXXXXX",
"XXXXXXXX  o h K L ) <.A.=.~.R./.'.R.!.=.A.<.R Y K 5 o     XXXXXX",
"XXXXXXXX  X , 1 J R ,.4.D.Q.W.2.3.W.W.E.4.,.R J 1 , X     XXXXXX",
"XXXXXXXX          # 8 2.R.k.x.3.3.k.k.R.2.9 #             XXXXXX",
"XXXXXXXX              O t 2.1.R.R.1.2.r O                 XXXXXX",
"XXXXXXXXXX                3 =.3.5.;.3                     XXXXXX",
"XXXXXXXXXXXXXXXXXXXX        % *.*.%             XXXXXXXXXXXXXXXX",
"XXXXXXXXXXXXXXXXXXXXXX        $ $           XXXXXXXXXXXXXXXXXXXX",
"XXXXXXXXXXXXXXXXXXXXXXXXXX                XXXXXXXXXXXXXXXXXXXXXX",
"XXXXXXXXXXXXXXXXXXXXXXXXXXXX            XXXXXXXXXXXXXXXXXXXXXXXX"
};
