/* XPM */
static char *dummy[]={
"32 32 158 2",
"Qt c None",
".D c #000000",
".2 c #010001",
".p c #010101",
".F c #020202",
".y c #030203",
"#1 c #030304",
".z c #040304",
"a. c #040304",
"#b c #050405",
"ag c #060406",
".C c #070507",
".# c #070508",
"ab c #080608",
"as c #080609",
"#I c #090709",
".h c #09070a",
"ak c #09070a",
"ac c #0a080b",
"#h c #0c090d",
"af c #0f0b10",
"#M c #120d12",
"at c #1a131b",
"aB c #1d161f",
".I c #1f1721",
".q c #251b27",
".Q c #291e2b",
".3 c #2a1f2c",
".t c #2b1f2d",
"#i c #2b1f2d",
".a c #2c202f",
"#2 c #2d2130",
".g c #2e2231",
"#D c #302333",
".i c #312434",
"#Q c #352738",
".o c #362739",
"#o c #37283a",
"#6 c #38293b",
"al c #3a2a3d",
"#H c #3c2c40",
"#U c #412f44",
"ao c #423046",
"au c #443248",
"aA c #47334b",
"ap c #49354d",
".b c #49354d",
".f c #4b364f",
"#p c #4c3751",
"ar c #4e3953",
"#B c #503a55",
".G c #513a55",
".u c #553e5a",
"#t c #58405d",
".e c #5b4261",
".c c #5c4261",
"#C c #5c4261",
".H c #5d4362",
".d c #5d4262",
".x c #5e4464",
"av c #624768",
"#u c #634768",
"#7 c #64486a",
"az c #644869",
"#z c #65496b",
"#x c #6b4c71",
"ah c #6e4f74",
"#w c #6f5075",
".E c #705176",
".9 c #705176",
".A c #705177",
"#A c #715278",
"ay c #73537a",
"aw c #74537a",
".j c #75547c",
"ax c #75537c",
"aj c #76557d",
"#y c #77557e",
"#N c #795780",
".n c #795780",
".B c #7a5881",
"#a c #7c5983",
".R c #815d88",
"a# c #815d89",
"ad c #845f8b",
"#P c #85608d",
".r c #87618f",
"aa c #8a6392",
"ae c #8b6493",
".1 c #8b6493",
".s c #8c6594",
"#V c #8d6595",
"aq c #91689a",
"#0 c #966b9e",
"am c #996ea2",
"an c #9d70a6",
"#c c #a375ad",
".k c #a676af",
"#J c #a777b0",
".m c #a777b1",
".J c #a778b1",
"#g c #a878b2",
".v c #a878b2",
".P c #aa79b3",
".w c #aa79b4",
"#3 c #aa79b4",
"ai c #aa7ab4",
".4 c #ab7ab5",
".l c #ab7ab5",
".K c #ac7bb5",
"#G c #ac7bb6",
".O c #ac7cb6",
"#F c #ad7db7",
"#j c #ae7fb7",
"#q c #ae7fb8",
"#f c #ae80b8",
".L c #b184bb",
".N c #b285bb",
".S c #b386bc",
"#Z c #b387bc",
".M c #b488bd",
".0 c #b589bd",
"#R c #b78dbf",
".5 c #b991c1",
"#T c #bc95c4",
".8 c #bd96c5",
"#m c #c19dc8",
"#l c #c3a1ca",
"#W c #d5bdda",
".T c #d7c0dc",
".Z c #d9c4de",
"#v c #e3d4e7",
"#s c #e4d4e7",
"#8 c #e4d5e7",
"#. c #e7daea",
"#9 c #e8daea",
"#r c #ebdfed",
"#O c #ede2ef",
"## c #ede3ef",
"#Y c #eee5f0",
".U c #f0e7f2",
".Y c #f2eaf3",
"#L c #f2ebf4",
"#E c #f3edf5",
"#4 c #f4eef5",
"#n c #f6f1f7",
"#5 c #f7f3f8",
"#S c #f8f3f8",
".6 c #f8f4f9",
"#k c #f9f6fa",
".7 c #faf7fa",
"#K c #fbf9fb",
"#d c #fcfafc",
".V c #fdfcfd",
"#X c #fdfdfe",
".X c #fefdfe",
"#e c #fefefe",
".W c #ffffff",
"QtQtQtQtQtQtQtQtQtQtQt.#.a.b.c.d.e.f.g.hQtQtQtQtQtQtQtQtQtQtQtQt",
"QtQtQtQtQtQtQtQtQt.i.j.k.l.l.l.l.l.l.l.m.n.o.pQtQtQtQtQtQtQtQtQt",
"QtQtQtQtQtQtQt.q.r.l.l.l.l.l.l.l.l.l.l.l.l.l.s.tQtQtQtQtQtQtQtQt",
"QtQtQtQtQt.p.u.v.l.l.l.l.l.l.l.l.l.l.l.l.l.l.l.w.x.yQtQtQtQtQtQt",
"QtQtQtQt.z.A.l.l.l.l.l.l.l.l.l.l.l.l.l.l.l.l.l.l.l.B.CQtQtQtQtQt",
"QtQtQt.D.E.l.l.l.l.l.l.l.l.l.l.l.l.l.l.l.l.l.l.l.l.l.B.FQtQtQtQt",
"QtQtQt.G.l.l.l.l.l.l.l.l.l.l.l.l.l.l.l.l.l.l.l.l.l.l.l.HQtQtQtQt",
"QtQt.I.J.l.l.l.l.l.l.l.l.l.K.L.M.N.O.l.l.l.l.l.l.l.l.l.P.QQtQtQt",
"QtQt.R.l.l.l.l.l.l.l.S.T.U.V.W.W.W.X.Y.Z.0.l.l.l.l.l.l.l.1.2QtQt",
"Qt.3.4.l.l.l.l.l.l.5.6.W.W.W.W.W.W.W.W.W.7.8.l.l.l.l.l.l.l.oQtQt",
"Qt.9.l.l.l.l.l.l.l#..W.W.W.W.W.W.W.W.W.W.W##.l.l.l.l.l.l.l#aQtQt",
"#b#c.l.l.l.l.l.l.l#d.W.W.W.W.W.W.W.W.W.W.W#e#f.l.l.l.l.l.l#g#hQt",
"#i.l.l.l.l.l.l.l#j.W.W.W.W#k#l.5#m#n.W.W.W.W.M.l.l.l.l.l.l.l#oQt",
"#p.l.l.l.l.l.l.l#q.W.W.W.W#r.l.l.l#s.W.W.W.W.M.l.l.l.l.l.l.l#tQt",
"#u.l.l.l.l.l.l.l#q.W.W.W.W#r.l.l.l#v.W.W.W.W.M.l.l.l.l.l.l.l#wQt",
"#x.l.l.l.l.l.l.l#q.W.W.W.W#r.l.l.l#v.W.W.W.W.M.l.l.l.l.l.l.l#yQt",
"#x.l.l.l.l.l.l.l#q.W.W.W.W#r.l.l.l#v.W.W.W.W.M.l.l.l.l.l.l.l#yQt",
"#z.l.l.l.l.l.l.l#q.W.W.W.W#r.l.l.l#v.W.W.W.W.M.l.l.l.l.l.l.l#AQt",
"#B.l.l.l.l.l.l.l#q.W.W.W.W#r.l.l.l#v.W.W.W.W.M.l.l.l.l.l.l.l#CQt",
"#D.l.l.l.l.l.l.l#j.W.W.W.W#E#F.l#G##.W.W.W.W.M.l.l.l.l.l.l.l#HQt",
"#I#J.l.l.l.l.l.l.l#K.W.W.W.W.7#L#k.W.W.W.W#e#f.l.l.l.l.l.l.w#MQt",
"Qt#N.l.l.l.l.l.l.l#v.W.W.W.W.W.W.W.W.W.W.W#O.l.l.l.l.l.l.l#PQtQt",
"Qt#Q.l.l.l.l.l.l.l#R#S.W.W.W.W.W.W.W.W.W#k#T.l.l.l.l.l.l.l#UQtQt",
"Qt.p#V.l.l.l.l.l.l.l.N#W###X.W.W.W.X#Y.T#Z.l.l.l.l.l.l.l#0#1QtQt",
"QtQt#2#3.l.l.l.l.l.l.l.l.l#4.W.W.W#5.l.l.l.l.l.l.l.l.l.l#6QtQtQt",
"QtQtQt#7.l.l.l.l.l.l.l.l.l#8#n#n#n#9.l.l.l.l.l.l.l.l.l.EQtQtQtQt",
"QtQtQta.a#.l.l.l.l.l.l.l.l.l.l.l.l.l.l.l.l.l.l.l.l.laaabQtQtQtQt",
"QtQtQtQtacad.l.l.l.l.l.l.l.l.l.l.l.l.l.l.l.l.l.l.laeafQtQtQtQtQt",
"QtQtQtQtQtagahai.l.l.l.l.l.l.l.l.l.l.l.l.l.l.l.lajakQtQtQtQtQtQt",
"QtQtQtQtQtQtQtalam.l.l.l.l.l.l.l.l.l.l.l.l.lanaoQtQtQtQtQtQtQtQt",
"QtQtQtQtQtQtQtQtagap#Vai.l.l.l.l.l.l.l.laqarasQtQtQtQtQtQtQtQtQt",
"QtQtQtQtQtQtQtQtQtQtQtatauavawaxayazaAaBQtQtQtQtQtQtQtQtQtQtQtQt"};
